<mxfile host="app.diagrams.net" agent="Mozilla/5.0 (Windows NT 10.0; Win64; x64) AppleWebKit/537.36 (KHTML, like Gecko) Chrome/131.0.0.0 Safari/537.36" version="24.8.8" pages="3">
  <diagram name="Menu Utama" id="SML9QsGOwK6kCvX9PdXk">
    <mxGraphModel dx="844" dy="457" grid="1" gridSize="10" guides="1" tooltips="1" connect="1" arrows="1" fold="1" page="1" pageScale="1" pageWidth="850" pageHeight="1100" math="0" shadow="0">
      <root>
        <mxCell id="0" />
        <mxCell id="1" parent="0" />
        <mxCell id="331WsTA2oZGNjNdJkFzt-1" style="edgeStyle=orthogonalEdgeStyle;rounded=0;orthogonalLoop=1;jettySize=auto;html=1;entryX=0.5;entryY=0;entryDx=0;entryDy=0;exitX=0.468;exitY=0.993;exitDx=0;exitDy=0;exitPerimeter=0;" parent="1" source="331WsTA2oZGNjNdJkFzt-15" target="331WsTA2oZGNjNdJkFzt-4" edge="1">
          <mxGeometry relative="1" as="geometry">
            <mxPoint x="446.9" y="108.24675324675326" as="sourcePoint" />
          </mxGeometry>
        </mxCell>
        <mxCell id="331WsTA2oZGNjNdJkFzt-2" style="edgeStyle=orthogonalEdgeStyle;rounded=0;orthogonalLoop=1;jettySize=auto;html=1;exitX=1;exitY=1;exitDx=0;exitDy=0;" parent="1" source="331WsTA2oZGNjNdJkFzt-4" edge="1">
          <mxGeometry relative="1" as="geometry">
            <mxPoint x="637.025" y="211.2012987012987" as="targetPoint" />
          </mxGeometry>
        </mxCell>
        <mxCell id="331WsTA2oZGNjNdJkFzt-3" style="edgeStyle=orthogonalEdgeStyle;rounded=0;orthogonalLoop=1;jettySize=auto;html=1;entryX=0.5;entryY=0;entryDx=0;entryDy=0;" parent="1" source="331WsTA2oZGNjNdJkFzt-4" target="331WsTA2oZGNjNdJkFzt-6" edge="1">
          <mxGeometry relative="1" as="geometry" />
        </mxCell>
        <mxCell id="331WsTA2oZGNjNdJkFzt-4" value="&lt;div&gt;&lt;font face=&quot;Times New Roman&quot;&gt;output&lt;/font&gt;&lt;/div&gt;&lt;font face=&quot;Times New Roman&quot;&gt;&quot;Selamat Datang di Manajemen Data Webtoon Indonesia.&amp;nbsp;&lt;/font&gt;&lt;div&gt;&lt;font face=&quot;Times New Roman&quot;&gt;Silahkan Registrasi!&quot;&lt;/font&gt;&lt;/div&gt;&lt;div&gt;&lt;font face=&quot;Times New Roman&quot;&gt;1. Registrasi&lt;/font&gt;&lt;/div&gt;&lt;div&gt;&lt;font face=&quot;Times New Roman&quot;&gt;2. Login&lt;/font&gt;&lt;/div&gt;&lt;div&gt;&lt;font face=&quot;Times New Roman&quot;&gt;3.Exit&lt;/font&gt;&lt;/div&gt;" style="shape=parallelogram;perimeter=parallelogramPerimeter;whiteSpace=wrap;html=1;fixedSize=1;" parent="1" vertex="1">
          <mxGeometry x="266.525" y="118.05194805194806" width="360.75" height="98.05194805194806" as="geometry" />
        </mxCell>
        <mxCell id="331WsTA2oZGNjNdJkFzt-5" style="edgeStyle=orthogonalEdgeStyle;rounded=0;orthogonalLoop=1;jettySize=auto;html=1;entryX=0.5;entryY=0;entryDx=0;entryDy=0;" parent="1" source="331WsTA2oZGNjNdJkFzt-6" target="331WsTA2oZGNjNdJkFzt-9" edge="1">
          <mxGeometry relative="1" as="geometry" />
        </mxCell>
        <mxCell id="331WsTA2oZGNjNdJkFzt-6" value="input&amp;nbsp;&lt;div&gt;pilihan&lt;/div&gt;" style="shape=parallelogram;perimeter=parallelogramPerimeter;whiteSpace=wrap;html=1;fixedSize=1;" parent="1" vertex="1">
          <mxGeometry x="378.65" y="255.32467532467533" width="136.5" height="58.83116883116883" as="geometry" />
        </mxCell>
        <mxCell id="331WsTA2oZGNjNdJkFzt-44" style="edgeStyle=orthogonalEdgeStyle;rounded=0;orthogonalLoop=1;jettySize=auto;html=1;entryX=0.5;entryY=0;entryDx=0;entryDy=0;" parent="1" source="331WsTA2oZGNjNdJkFzt-9" target="331WsTA2oZGNjNdJkFzt-14" edge="1">
          <mxGeometry relative="1" as="geometry" />
        </mxCell>
        <mxCell id="W6TRgwL_jsW990o4JVqx-51" value="True" style="edgeLabel;html=1;align=center;verticalAlign=middle;resizable=0;points=[];" parent="331WsTA2oZGNjNdJkFzt-44" vertex="1" connectable="0">
          <mxGeometry x="-0.3752" y="-1" relative="1" as="geometry">
            <mxPoint as="offset" />
          </mxGeometry>
        </mxCell>
        <mxCell id="331WsTA2oZGNjNdJkFzt-49" style="edgeStyle=orthogonalEdgeStyle;rounded=0;orthogonalLoop=1;jettySize=auto;html=1;entryX=0.5;entryY=0;entryDx=0;entryDy=0;" parent="1" source="331WsTA2oZGNjNdJkFzt-9" target="331WsTA2oZGNjNdJkFzt-48" edge="1">
          <mxGeometry relative="1" as="geometry" />
        </mxCell>
        <mxCell id="W6TRgwL_jsW990o4JVqx-52" value="False" style="edgeLabel;html=1;align=center;verticalAlign=middle;resizable=0;points=[];" parent="331WsTA2oZGNjNdJkFzt-49" vertex="1" connectable="0">
          <mxGeometry x="-0.3069" y="1" relative="1" as="geometry">
            <mxPoint x="-1" as="offset" />
          </mxGeometry>
        </mxCell>
        <mxCell id="331WsTA2oZGNjNdJkFzt-9" value="if pilihan == 1" style="rhombus;whiteSpace=wrap;html=1;" parent="1" vertex="1">
          <mxGeometry x="393.34325" y="353.3766233766234" width="107.12325" height="89.22727272727273" as="geometry" />
        </mxCell>
        <mxCell id="331WsTA2oZGNjNdJkFzt-15" value="START" style="ellipse;whiteSpace=wrap;html=1;" parent="1" vertex="1">
          <mxGeometry x="394.49375" y="20" width="109.6875" height="68.63636363636364" as="geometry" />
        </mxCell>
        <mxCell id="W6TRgwL_jsW990o4JVqx-14" style="edgeStyle=orthogonalEdgeStyle;rounded=0;orthogonalLoop=1;jettySize=auto;html=1;entryX=0;entryY=0.5;entryDx=0;entryDy=0;" parent="1" source="331WsTA2oZGNjNdJkFzt-34" target="331WsTA2oZGNjNdJkFzt-4" edge="1">
          <mxGeometry relative="1" as="geometry">
            <Array as="points">
              <mxPoint x="14" y="638.7077922077923" />
              <mxPoint x="14" y="167.0779220779221" />
            </Array>
          </mxGeometry>
        </mxCell>
        <mxCell id="W6TRgwL_jsW990o4JVqx-43" style="edgeStyle=orthogonalEdgeStyle;rounded=0;orthogonalLoop=1;jettySize=auto;html=1;exitX=1;exitY=1;exitDx=0;exitDy=0;" parent="1" source="331WsTA2oZGNjNdJkFzt-34" edge="1">
          <mxGeometry relative="1" as="geometry">
            <mxPoint x="170" y="661.0000000000001" as="targetPoint" />
          </mxGeometry>
        </mxCell>
        <mxCell id="331WsTA2oZGNjNdJkFzt-34" value="output&lt;div&gt;&quot;pilihan tidak valid&quot;&lt;/div&gt;" style="shape=parallelogram;perimeter=parallelogramPerimeter;whiteSpace=wrap;html=1;fixedSize=1;" parent="1" vertex="1">
          <mxGeometry x="20" y="609.2922077922078" width="146.25" height="58.83116883116883" as="geometry" />
        </mxCell>
        <mxCell id="331WsTA2oZGNjNdJkFzt-47" style="edgeStyle=orthogonalEdgeStyle;rounded=0;orthogonalLoop=1;jettySize=auto;html=1;entryX=0.5;entryY=0;entryDx=0;entryDy=0;" parent="1" source="331WsTA2oZGNjNdJkFzt-14" target="331WsTA2oZGNjNdJkFzt-26" edge="1">
          <mxGeometry relative="1" as="geometry" />
        </mxCell>
        <mxCell id="331WsTA2oZGNjNdJkFzt-14" value="input&amp;nbsp;&lt;span style=&quot;background-color: initial;&quot;&gt;username&amp;nbsp;&lt;/span&gt;&lt;div&gt;&lt;span style=&quot;background-color: initial;&quot;&gt;dan password&lt;/span&gt;&lt;/div&gt;" style="shape=parallelogram;perimeter=parallelogramPerimeter;whiteSpace=wrap;html=1;fixedSize=1;" parent="1" vertex="1">
          <mxGeometry x="535.26425" y="442.60389610389615" width="126.75" height="49.02597402597403" as="geometry" />
        </mxCell>
        <mxCell id="W6TRgwL_jsW990o4JVqx-10" style="edgeStyle=orthogonalEdgeStyle;rounded=0;orthogonalLoop=1;jettySize=auto;html=1;entryX=1;entryY=0.5;entryDx=0;entryDy=0;" parent="1" source="331WsTA2oZGNjNdJkFzt-26" target="331WsTA2oZGNjNdJkFzt-31" edge="1">
          <mxGeometry relative="1" as="geometry" />
        </mxCell>
        <mxCell id="W6TRgwL_jsW990o4JVqx-18" value="False" style="edgeLabel;html=1;align=center;verticalAlign=middle;resizable=0;points=[];" parent="W6TRgwL_jsW990o4JVqx-10" vertex="1" connectable="0">
          <mxGeometry x="-0.2825" relative="1" as="geometry">
            <mxPoint as="offset" />
          </mxGeometry>
        </mxCell>
        <mxCell id="W6TRgwL_jsW990o4JVqx-11" style="edgeStyle=orthogonalEdgeStyle;rounded=0;orthogonalLoop=1;jettySize=auto;html=1;" parent="1" source="331WsTA2oZGNjNdJkFzt-26" target="331WsTA2oZGNjNdJkFzt-38" edge="1">
          <mxGeometry relative="1" as="geometry" />
        </mxCell>
        <mxCell id="W6TRgwL_jsW990o4JVqx-17" value="True" style="edgeLabel;html=1;align=center;verticalAlign=middle;resizable=0;points=[];" parent="W6TRgwL_jsW990o4JVqx-11" vertex="1" connectable="0">
          <mxGeometry x="-0.0833" relative="1" as="geometry">
            <mxPoint as="offset" />
          </mxGeometry>
        </mxCell>
        <mxCell id="331WsTA2oZGNjNdJkFzt-26" value="username ada?" style="rhombus;whiteSpace=wrap;html=1;" parent="1" vertex="1">
          <mxGeometry x="546.7892499999999" y="521.0454545454545" width="103.71075" height="88.24675324675326" as="geometry" />
        </mxCell>
        <mxCell id="W6TRgwL_jsW990o4JVqx-13" style="edgeStyle=orthogonalEdgeStyle;rounded=0;orthogonalLoop=1;jettySize=auto;html=1;entryX=1;entryY=0.5;entryDx=0;entryDy=0;" parent="1" source="331WsTA2oZGNjNdJkFzt-38" target="331WsTA2oZGNjNdJkFzt-4" edge="1">
          <mxGeometry relative="1" as="geometry">
            <Array as="points">
              <mxPoint x="764.75" y="167.0779220779221" />
            </Array>
          </mxGeometry>
        </mxCell>
        <mxCell id="h8XpHXM5k-BRstgSHdTF-4" style="edgeStyle=orthogonalEdgeStyle;rounded=0;orthogonalLoop=1;jettySize=auto;html=1;exitX=1;exitY=1;exitDx=0;exitDy=0;" edge="1" parent="1" source="331WsTA2oZGNjNdJkFzt-38">
          <mxGeometry relative="1" as="geometry">
            <mxPoint x="830.0000000000002" y="588.5757575757576" as="targetPoint" />
          </mxGeometry>
        </mxCell>
        <mxCell id="331WsTA2oZGNjNdJkFzt-38" value="output&amp;nbsp;&lt;div&gt;&quot;Error: username&amp;nbsp;&lt;/div&gt;&lt;div&gt;telah digunakan&lt;/div&gt;" style="shape=parallelogram;perimeter=parallelogramPerimeter;whiteSpace=wrap;html=1;fixedSize=1;" parent="1" vertex="1">
          <mxGeometry x="706.25" y="533.04" width="123.75" height="64.25" as="geometry" />
        </mxCell>
        <mxCell id="331WsTA2oZGNjNdJkFzt-52" style="edgeStyle=orthogonalEdgeStyle;rounded=0;orthogonalLoop=1;jettySize=auto;html=1;entryX=0.5;entryY=0;entryDx=0;entryDy=0;" parent="1" source="331WsTA2oZGNjNdJkFzt-48" target="331WsTA2oZGNjNdJkFzt-50" edge="1">
          <mxGeometry relative="1" as="geometry" />
        </mxCell>
        <mxCell id="h8XpHXM5k-BRstgSHdTF-2" value="False" style="edgeLabel;html=1;align=center;verticalAlign=middle;resizable=0;points=[];" vertex="1" connectable="0" parent="331WsTA2oZGNjNdJkFzt-52">
          <mxGeometry x="-0.4225" y="-2" relative="1" as="geometry">
            <mxPoint as="offset" />
          </mxGeometry>
        </mxCell>
        <mxCell id="331WsTA2oZGNjNdJkFzt-58" style="edgeStyle=orthogonalEdgeStyle;rounded=0;orthogonalLoop=1;jettySize=auto;html=1;entryX=0.5;entryY=0;entryDx=0;entryDy=0;" parent="1" source="331WsTA2oZGNjNdJkFzt-48" target="331WsTA2oZGNjNdJkFzt-31" edge="1">
          <mxGeometry relative="1" as="geometry">
            <Array as="points">
              <mxPoint x="425.45" y="467.1168831168831" />
            </Array>
          </mxGeometry>
        </mxCell>
        <mxCell id="h8XpHXM5k-BRstgSHdTF-1" value="True" style="edgeLabel;html=1;align=center;verticalAlign=middle;resizable=0;points=[];" vertex="1" connectable="0" parent="331WsTA2oZGNjNdJkFzt-58">
          <mxGeometry x="-0.5119" y="-1" relative="1" as="geometry">
            <mxPoint x="1" as="offset" />
          </mxGeometry>
        </mxCell>
        <mxCell id="331WsTA2oZGNjNdJkFzt-48" value="elif pilihan == 2" style="rhombus;whiteSpace=wrap;html=1;" parent="1" vertex="1">
          <mxGeometry x="266.525" y="422.5032467532468" width="107.12325" height="89.22727272727273" as="geometry" />
        </mxCell>
        <mxCell id="W6TRgwL_jsW990o4JVqx-25" style="edgeStyle=orthogonalEdgeStyle;rounded=0;orthogonalLoop=1;jettySize=auto;html=1;" parent="1" edge="1">
          <mxGeometry relative="1" as="geometry">
            <mxPoint x="393" y="1242" as="targetPoint" />
            <mxPoint x="190.32000000000008" y="469.99745992607575" as="sourcePoint" />
            <Array as="points">
              <mxPoint x="189.92" y="1242.15" />
            </Array>
          </mxGeometry>
        </mxCell>
        <mxCell id="W6TRgwL_jsW990o4JVqx-55" value="True" style="edgeLabel;html=1;align=center;verticalAlign=middle;resizable=0;points=[];" parent="W6TRgwL_jsW990o4JVqx-25" vertex="1" connectable="0">
          <mxGeometry x="-0.7193" y="-1" relative="1" as="geometry">
            <mxPoint as="offset" />
          </mxGeometry>
        </mxCell>
        <mxCell id="W6TRgwL_jsW990o4JVqx-42" style="edgeStyle=orthogonalEdgeStyle;rounded=0;orthogonalLoop=1;jettySize=auto;html=1;" parent="1" source="331WsTA2oZGNjNdJkFzt-50" target="331WsTA2oZGNjNdJkFzt-34" edge="1">
          <mxGeometry relative="1" as="geometry">
            <Array as="points">
              <mxPoint x="93" y="536" />
            </Array>
          </mxGeometry>
        </mxCell>
        <mxCell id="W6TRgwL_jsW990o4JVqx-54" value="False" style="edgeLabel;html=1;align=center;verticalAlign=middle;resizable=0;points=[];" parent="W6TRgwL_jsW990o4JVqx-42" vertex="1" connectable="0">
          <mxGeometry x="-0.6645" y="1" relative="1" as="geometry">
            <mxPoint as="offset" />
          </mxGeometry>
        </mxCell>
        <mxCell id="331WsTA2oZGNjNdJkFzt-50" value="elif pilihan == 3" style="rhombus;whiteSpace=wrap;html=1;" parent="1" vertex="1">
          <mxGeometry x="136.85" y="491.62987012987014" width="107.12325" height="89.22727272727273" as="geometry" />
        </mxCell>
        <mxCell id="331WsTA2oZGNjNdJkFzt-54" style="edgeStyle=orthogonalEdgeStyle;rounded=0;orthogonalLoop=1;jettySize=auto;html=1;" parent="1" source="331WsTA2oZGNjNdJkFzt-31" target="331WsTA2oZGNjNdJkFzt-35" edge="1">
          <mxGeometry relative="1" as="geometry" />
        </mxCell>
        <mxCell id="331WsTA2oZGNjNdJkFzt-55" style="edgeStyle=orthogonalEdgeStyle;rounded=0;orthogonalLoop=1;jettySize=auto;html=1;exitX=1;exitY=1;exitDx=0;exitDy=0;" parent="1" source="331WsTA2oZGNjNdJkFzt-31" edge="1">
          <mxGeometry relative="1" as="geometry">
            <mxPoint x="489.61475" y="582.2578849721708" as="targetPoint" />
          </mxGeometry>
        </mxCell>
        <mxCell id="331WsTA2oZGNjNdJkFzt-31" value="output&lt;div&gt;&quot;Login User&quot;&lt;/div&gt;" style="shape=parallelogram;perimeter=parallelogramPerimeter;whiteSpace=wrap;html=1;fixedSize=1;" parent="1" vertex="1">
          <mxGeometry x="367.4375" y="540.6558441558442" width="115.29375" height="49.02597402597403" as="geometry" />
        </mxCell>
        <mxCell id="W6TRgwL_jsW990o4JVqx-20" style="edgeStyle=orthogonalEdgeStyle;rounded=0;orthogonalLoop=1;jettySize=auto;html=1;" parent="1" source="331WsTA2oZGNjNdJkFzt-35" target="W6TRgwL_jsW990o4JVqx-19" edge="1">
          <mxGeometry relative="1" as="geometry" />
        </mxCell>
        <mxCell id="331WsTA2oZGNjNdJkFzt-35" value="input&amp;nbsp;&lt;div&gt;username dan password&lt;/div&gt;" style="shape=parallelogram;perimeter=parallelogramPerimeter;whiteSpace=wrap;html=1;fixedSize=1;" parent="1" vertex="1">
          <mxGeometry x="364.6295" y="628.9025974025974" width="120.89999999999999" height="49.02597402597403" as="geometry" />
        </mxCell>
        <mxCell id="W6TRgwL_jsW990o4JVqx-4" value="END" style="ellipse;whiteSpace=wrap;html=1;" parent="1" vertex="1">
          <mxGeometry x="393.51875" y="1205.3636363636365" width="109.6875" height="68.63636363636364" as="geometry" />
        </mxCell>
        <mxCell id="W6TRgwL_jsW990o4JVqx-30" style="edgeStyle=orthogonalEdgeStyle;rounded=0;orthogonalLoop=1;jettySize=auto;html=1;entryX=0.5;entryY=0;entryDx=0;entryDy=0;" parent="1" source="W6TRgwL_jsW990o4JVqx-19" target="W6TRgwL_jsW990o4JVqx-31" edge="1">
          <mxGeometry relative="1" as="geometry">
            <mxPoint x="425.08437500000014" y="860" as="targetPoint" />
          </mxGeometry>
        </mxCell>
        <mxCell id="W6TRgwL_jsW990o4JVqx-47" value="False" style="edgeLabel;html=1;align=center;verticalAlign=middle;resizable=0;points=[];" parent="W6TRgwL_jsW990o4JVqx-30" vertex="1" connectable="0">
          <mxGeometry x="-0.31" relative="1" as="geometry">
            <mxPoint as="offset" />
          </mxGeometry>
        </mxCell>
        <mxCell id="W6TRgwL_jsW990o4JVqx-57" style="edgeStyle=orthogonalEdgeStyle;rounded=0;orthogonalLoop=1;jettySize=auto;html=1;entryX=0.5;entryY=0;entryDx=0;entryDy=0;" parent="1" source="W6TRgwL_jsW990o4JVqx-19" target="W6TRgwL_jsW990o4JVqx-56" edge="1">
          <mxGeometry relative="1" as="geometry" />
        </mxCell>
        <mxCell id="W6TRgwL_jsW990o4JVqx-58" value="True" style="edgeLabel;html=1;align=center;verticalAlign=middle;resizable=0;points=[];" parent="W6TRgwL_jsW990o4JVqx-57" vertex="1" connectable="0">
          <mxGeometry x="-0.2789" y="1" relative="1" as="geometry">
            <mxPoint as="offset" />
          </mxGeometry>
        </mxCell>
        <mxCell id="W6TRgwL_jsW990o4JVqx-19" value="if username == admin&lt;div&gt;password == admin&lt;/div&gt;" style="rhombus;whiteSpace=wrap;html=1;" parent="1" vertex="1">
          <mxGeometry x="350.35" y="720" width="149.44" height="130" as="geometry" />
        </mxCell>
        <mxCell id="W6TRgwL_jsW990o4JVqx-34" style="edgeStyle=orthogonalEdgeStyle;rounded=0;orthogonalLoop=1;jettySize=auto;html=1;" parent="1" source="W6TRgwL_jsW990o4JVqx-31" edge="1">
          <mxGeometry relative="1" as="geometry">
            <mxPoint x="425.07500000000005" y="1080" as="targetPoint" />
          </mxGeometry>
        </mxCell>
        <mxCell id="W6TRgwL_jsW990o4JVqx-49" value="False" style="edgeLabel;html=1;align=center;verticalAlign=middle;resizable=0;points=[];" parent="W6TRgwL_jsW990o4JVqx-34" vertex="1" connectable="0">
          <mxGeometry x="-0.2737" relative="1" as="geometry">
            <mxPoint as="offset" />
          </mxGeometry>
        </mxCell>
        <mxCell id="W6TRgwL_jsW990o4JVqx-60" style="edgeStyle=orthogonalEdgeStyle;rounded=0;orthogonalLoop=1;jettySize=auto;html=1;entryX=0.5;entryY=0;entryDx=0;entryDy=0;" parent="1" source="W6TRgwL_jsW990o4JVqx-31" target="W6TRgwL_jsW990o4JVqx-59" edge="1">
          <mxGeometry relative="1" as="geometry" />
        </mxCell>
        <mxCell id="W6TRgwL_jsW990o4JVqx-61" value="True" style="edgeLabel;html=1;align=center;verticalAlign=middle;resizable=0;points=[];" parent="W6TRgwL_jsW990o4JVqx-60" vertex="1" connectable="0">
          <mxGeometry x="-0.481" relative="1" as="geometry">
            <mxPoint as="offset" />
          </mxGeometry>
        </mxCell>
        <mxCell id="W6TRgwL_jsW990o4JVqx-31" value="username dan&amp;nbsp;&lt;div&gt;password ada?&lt;/div&gt;" style="rhombus;whiteSpace=wrap;html=1;" parent="1" vertex="1">
          <mxGeometry x="356.44" y="890" width="137.27" height="110" as="geometry" />
        </mxCell>
        <mxCell id="W6TRgwL_jsW990o4JVqx-40" style="edgeStyle=orthogonalEdgeStyle;rounded=0;orthogonalLoop=1;jettySize=auto;html=1;" parent="1" source="W6TRgwL_jsW990o4JVqx-36" edge="1">
          <mxGeometry relative="1" as="geometry">
            <mxPoint x="850" y="160.47620500837053" as="targetPoint" />
          </mxGeometry>
        </mxCell>
        <mxCell id="h8XpHXM5k-BRstgSHdTF-3" style="edgeStyle=orthogonalEdgeStyle;rounded=0;orthogonalLoop=1;jettySize=auto;html=1;exitX=1;exitY=1;exitDx=0;exitDy=0;" edge="1" parent="1" source="W6TRgwL_jsW990o4JVqx-36">
          <mxGeometry relative="1" as="geometry">
            <mxPoint x="500" y="1133.1428571428573" as="targetPoint" />
          </mxGeometry>
        </mxCell>
        <mxCell id="W6TRgwL_jsW990o4JVqx-36" value="output &quot;Username&amp;nbsp;&lt;div&gt;atau password salah&lt;span style=&quot;background-color: initial;&quot;&gt;.&quot;&lt;/span&gt;&lt;/div&gt;" style="shape=parallelogram;perimeter=parallelogramPerimeter;whiteSpace=wrap;html=1;fixedSize=1;" parent="1" vertex="1">
          <mxGeometry x="339.72" y="1080" width="160.07" height="60" as="geometry" />
        </mxCell>
        <mxCell id="W6TRgwL_jsW990o4JVqx-41" value="" style="endArrow=classic;html=1;rounded=0;" parent="1" edge="1">
          <mxGeometry width="50" height="50" relative="1" as="geometry">
            <mxPoint x="850" y="167" as="sourcePoint" />
            <mxPoint x="760" y="167" as="targetPoint" />
          </mxGeometry>
        </mxCell>
        <mxCell id="W6TRgwL_jsW990o4JVqx-56" value="A" style="shape=offPageConnector;whiteSpace=wrap;html=1;" parent="1" vertex="1">
          <mxGeometry x="570" y="840" width="60" height="60" as="geometry" />
        </mxCell>
        <mxCell id="W6TRgwL_jsW990o4JVqx-59" value="B" style="shape=offPageConnector;whiteSpace=wrap;html=1;" parent="1" vertex="1">
          <mxGeometry x="567.28" y="1010" width="60" height="60" as="geometry" />
        </mxCell>
      </root>
    </mxGraphModel>
  </diagram>
  <diagram id="4Lpg87E_Tar8YzHP7CDC" name="Menu Admin">
    <mxGraphModel dx="1689" dy="913" grid="1" gridSize="10" guides="1" tooltips="1" connect="1" arrows="1" fold="1" page="1" pageScale="1" pageWidth="850" pageHeight="1100" math="0" shadow="0">
      <root>
        <mxCell id="0" />
        <mxCell id="1" parent="0" />
        <mxCell id="s8kSpsHxrvDdrfxuILrK-1" value="" style="group" vertex="1" connectable="0" parent="1">
          <mxGeometry x="70" y="30" width="1630" height="1440" as="geometry" />
        </mxCell>
        <mxCell id="s8kSpsHxrvDdrfxuILrK-2" style="edgeStyle=orthogonalEdgeStyle;rounded=0;orthogonalLoop=1;jettySize=auto;html=1;" edge="1" parent="s8kSpsHxrvDdrfxuILrK-1" source="s8kSpsHxrvDdrfxuILrK-6">
          <mxGeometry relative="1" as="geometry">
            <mxPoint x="1127.5" y="361" as="targetPoint" />
          </mxGeometry>
        </mxCell>
        <mxCell id="s8kSpsHxrvDdrfxuILrK-3" value="False" style="edgeLabel;html=1;align=center;verticalAlign=middle;resizable=0;points=[];" vertex="1" connectable="0" parent="s8kSpsHxrvDdrfxuILrK-2">
          <mxGeometry x="-0.5557" y="2" relative="1" as="geometry">
            <mxPoint x="-1" as="offset" />
          </mxGeometry>
        </mxCell>
        <mxCell id="s8kSpsHxrvDdrfxuILrK-4" style="edgeStyle=orthogonalEdgeStyle;rounded=0;orthogonalLoop=1;jettySize=auto;html=1;entryX=0.5;entryY=0;entryDx=0;entryDy=0;" edge="1" parent="s8kSpsHxrvDdrfxuILrK-1" source="s8kSpsHxrvDdrfxuILrK-6">
          <mxGeometry relative="1" as="geometry">
            <mxPoint x="1455" y="341" as="targetPoint" />
            <Array as="points">
              <mxPoint x="1455" y="301" />
            </Array>
          </mxGeometry>
        </mxCell>
        <mxCell id="s8kSpsHxrvDdrfxuILrK-5" value="True" style="edgeLabel;html=1;align=center;verticalAlign=middle;resizable=0;points=[];" vertex="1" connectable="0" parent="s8kSpsHxrvDdrfxuILrK-4">
          <mxGeometry x="-0.2124" y="1" relative="1" as="geometry">
            <mxPoint as="offset" />
          </mxGeometry>
        </mxCell>
        <mxCell id="s8kSpsHxrvDdrfxuILrK-6" value="if&amp;nbsp; pilih == 1" style="rhombus;whiteSpace=wrap;html=1;" vertex="1" parent="s8kSpsHxrvDdrfxuILrK-1">
          <mxGeometry x="1257.5" y="261" width="100" height="80" as="geometry" />
        </mxCell>
        <mxCell id="s8kSpsHxrvDdrfxuILrK-7" style="edgeStyle=orthogonalEdgeStyle;rounded=0;orthogonalLoop=1;jettySize=auto;html=1;exitX=0.5;exitY=1;exitDx=0;exitDy=0;entryX=0.5;entryY=0;entryDx=0;entryDy=0;" edge="1" parent="s8kSpsHxrvDdrfxuILrK-1" source="s8kSpsHxrvDdrfxuILrK-8" target="s8kSpsHxrvDdrfxuILrK-6">
          <mxGeometry relative="1" as="geometry" />
        </mxCell>
        <mxCell id="s8kSpsHxrvDdrfxuILrK-8" value="input pilih" style="shape=parallelogram;perimeter=parallelogramPerimeter;whiteSpace=wrap;html=1;fixedSize=1;" vertex="1" parent="s8kSpsHxrvDdrfxuILrK-1">
          <mxGeometry x="1247.5" y="176" width="120" height="60" as="geometry" />
        </mxCell>
        <mxCell id="s8kSpsHxrvDdrfxuILrK-9" value="elif pilih == 2" style="rhombus;whiteSpace=wrap;html=1;" vertex="1" parent="s8kSpsHxrvDdrfxuILrK-1">
          <mxGeometry x="1077.5" y="361" width="100" height="80" as="geometry" />
        </mxCell>
        <mxCell id="s8kSpsHxrvDdrfxuILrK-10" style="edgeStyle=orthogonalEdgeStyle;rounded=0;orthogonalLoop=1;jettySize=auto;html=1;entryX=0.5;entryY=0;entryDx=0;entryDy=0;" edge="1" parent="s8kSpsHxrvDdrfxuILrK-1" source="s8kSpsHxrvDdrfxuILrK-12" target="s8kSpsHxrvDdrfxuILrK-8">
          <mxGeometry relative="1" as="geometry" />
        </mxCell>
        <mxCell id="s8kSpsHxrvDdrfxuILrK-11" style="edgeStyle=orthogonalEdgeStyle;rounded=0;orthogonalLoop=1;jettySize=auto;html=1;exitX=1;exitY=1;exitDx=0;exitDy=0;" edge="1" parent="s8kSpsHxrvDdrfxuILrK-1" source="s8kSpsHxrvDdrfxuILrK-12">
          <mxGeometry relative="1" as="geometry">
            <mxPoint x="1375" y="141.33333333333326" as="targetPoint" />
          </mxGeometry>
        </mxCell>
        <mxCell id="s8kSpsHxrvDdrfxuILrK-12" value="Output&lt;div&gt;Menu admin&lt;/div&gt;" style="shape=parallelogram;perimeter=parallelogramPerimeter;whiteSpace=wrap;html=1;fixedSize=1;" vertex="1" parent="s8kSpsHxrvDdrfxuILrK-1">
          <mxGeometry x="1247.5" y="90" width="120" height="60" as="geometry" />
        </mxCell>
        <mxCell id="s8kSpsHxrvDdrfxuILrK-13" style="edgeStyle=orthogonalEdgeStyle;rounded=0;orthogonalLoop=1;jettySize=auto;html=1;" edge="1" parent="s8kSpsHxrvDdrfxuILrK-1" source="s8kSpsHxrvDdrfxuILrK-9">
          <mxGeometry relative="1" as="geometry">
            <mxPoint x="1245" y="511" as="targetPoint" />
            <Array as="points">
              <mxPoint x="1245" y="401" />
            </Array>
          </mxGeometry>
        </mxCell>
        <mxCell id="s8kSpsHxrvDdrfxuILrK-14" value="True" style="edgeLabel;html=1;align=center;verticalAlign=middle;resizable=0;points=[];" vertex="1" connectable="0" parent="s8kSpsHxrvDdrfxuILrK-13">
          <mxGeometry x="-0.6224" relative="1" as="geometry">
            <mxPoint as="offset" />
          </mxGeometry>
        </mxCell>
        <mxCell id="s8kSpsHxrvDdrfxuILrK-15" style="edgeStyle=orthogonalEdgeStyle;rounded=0;orthogonalLoop=1;jettySize=auto;html=1;entryX=0.5;entryY=0;entryDx=0;entryDy=0;" edge="1" parent="s8kSpsHxrvDdrfxuILrK-1" source="s8kSpsHxrvDdrfxuILrK-9" target="s8kSpsHxrvDdrfxuILrK-29">
          <mxGeometry relative="1" as="geometry">
            <mxPoint x="1024.38" y="531" as="targetPoint" />
          </mxGeometry>
        </mxCell>
        <mxCell id="s8kSpsHxrvDdrfxuILrK-16" value="False" style="edgeLabel;html=1;align=center;verticalAlign=middle;resizable=0;points=[];" vertex="1" connectable="0" parent="s8kSpsHxrvDdrfxuILrK-15">
          <mxGeometry x="-0.6402" relative="1" as="geometry">
            <mxPoint x="14" as="offset" />
          </mxGeometry>
        </mxCell>
        <mxCell id="s8kSpsHxrvDdrfxuILrK-17" style="edgeStyle=orthogonalEdgeStyle;rounded=0;orthogonalLoop=1;jettySize=auto;html=1;exitX=1;exitY=1;exitDx=0;exitDy=0;" edge="1" parent="s8kSpsHxrvDdrfxuILrK-1" source="s8kSpsHxrvDdrfxuILrK-18">
          <mxGeometry relative="1" as="geometry">
            <mxPoint x="1555" y="399.3076923076924" as="targetPoint" />
          </mxGeometry>
        </mxCell>
        <mxCell id="s8kSpsHxrvDdrfxuILrK-18" value="output&amp;nbsp;&lt;div&gt;data komik webtoon&amp;nbsp;&lt;div&gt;(judul, pembaca,&amp;nbsp;&lt;div&gt;genre, rating, tahun terbit)&lt;/div&gt;&lt;/div&gt;&lt;/div&gt;" style="shape=parallelogram;perimeter=parallelogramPerimeter;whiteSpace=wrap;html=1;fixedSize=1;" vertex="1" parent="s8kSpsHxrvDdrfxuILrK-1">
          <mxGeometry x="1367.5" y="341" width="177.46478873239434" height="64.98591549295777" as="geometry" />
        </mxCell>
        <mxCell id="s8kSpsHxrvDdrfxuILrK-19" style="edgeStyle=orthogonalEdgeStyle;rounded=0;orthogonalLoop=1;jettySize=auto;html=1;" edge="1" parent="s8kSpsHxrvDdrfxuILrK-1" source="s8kSpsHxrvDdrfxuILrK-20">
          <mxGeometry relative="1" as="geometry">
            <mxPoint x="1630" y="466" as="targetPoint" />
          </mxGeometry>
        </mxCell>
        <mxCell id="s8kSpsHxrvDdrfxuILrK-20" value="input judul, pembaca,&amp;nbsp;&lt;div&gt;genre, rating, tahun terbit&lt;/div&gt;" style="shape=parallelogram;perimeter=parallelogramPerimeter;whiteSpace=wrap;html=1;fixedSize=1;" vertex="1" parent="s8kSpsHxrvDdrfxuILrK-1">
          <mxGeometry x="1367.5" y="441" width="180" height="50" as="geometry" />
        </mxCell>
        <mxCell id="s8kSpsHxrvDdrfxuILrK-21" style="edgeStyle=orthogonalEdgeStyle;rounded=0;orthogonalLoop=1;jettySize=auto;html=1;" edge="1" parent="s8kSpsHxrvDdrfxuILrK-1" target="s8kSpsHxrvDdrfxuILrK-20">
          <mxGeometry relative="1" as="geometry">
            <mxPoint x="1457.5" y="411" as="sourcePoint" />
          </mxGeometry>
        </mxCell>
        <mxCell id="s8kSpsHxrvDdrfxuILrK-22" style="edgeStyle=orthogonalEdgeStyle;rounded=0;orthogonalLoop=1;jettySize=auto;html=1;" edge="1" parent="s8kSpsHxrvDdrfxuILrK-1" source="s8kSpsHxrvDdrfxuILrK-24">
          <mxGeometry relative="1" as="geometry">
            <mxPoint x="1630" y="543" as="targetPoint" />
          </mxGeometry>
        </mxCell>
        <mxCell id="s8kSpsHxrvDdrfxuILrK-23" style="edgeStyle=orthogonalEdgeStyle;rounded=0;orthogonalLoop=1;jettySize=auto;html=1;exitX=1;exitY=1;exitDx=0;exitDy=0;" edge="1" parent="s8kSpsHxrvDdrfxuILrK-1" source="s8kSpsHxrvDdrfxuILrK-24">
          <mxGeometry relative="1" as="geometry">
            <mxPoint x="1345" y="569.4444444444443" as="targetPoint" />
          </mxGeometry>
        </mxCell>
        <mxCell id="s8kSpsHxrvDdrfxuILrK-24" value="output&amp;nbsp;&lt;div&gt;data komik webtoon&amp;nbsp;&lt;div&gt;(judul, pembaca,&amp;nbsp;&lt;div&gt;genre, rating, tahun terbit)&lt;/div&gt;&lt;/div&gt;&lt;/div&gt;" style="shape=parallelogram;perimeter=parallelogramPerimeter;whiteSpace=wrap;html=1;fixedSize=1;" vertex="1" parent="s8kSpsHxrvDdrfxuILrK-1">
          <mxGeometry x="1155" y="510.8299999999999" width="177.46478873239434" height="64.98591549295777" as="geometry" />
        </mxCell>
        <mxCell id="s8kSpsHxrvDdrfxuILrK-25" style="edgeStyle=orthogonalEdgeStyle;rounded=0;orthogonalLoop=1;jettySize=auto;html=1;entryX=0.5;entryY=0;entryDx=0;entryDy=0;" edge="1" parent="s8kSpsHxrvDdrfxuILrK-1" source="s8kSpsHxrvDdrfxuILrK-29" target="s8kSpsHxrvDdrfxuILrK-37">
          <mxGeometry relative="1" as="geometry">
            <mxPoint x="1094.38" y="669" as="targetPoint" />
          </mxGeometry>
        </mxCell>
        <mxCell id="s8kSpsHxrvDdrfxuILrK-26" value="True" style="edgeLabel;html=1;align=center;verticalAlign=middle;resizable=0;points=[];" vertex="1" connectable="0" parent="s8kSpsHxrvDdrfxuILrK-25">
          <mxGeometry x="0.1441" relative="1" as="geometry">
            <mxPoint x="-44" as="offset" />
          </mxGeometry>
        </mxCell>
        <mxCell id="s8kSpsHxrvDdrfxuILrK-27" style="edgeStyle=orthogonalEdgeStyle;rounded=0;orthogonalLoop=1;jettySize=auto;html=1;entryX=0.5;entryY=0;entryDx=0;entryDy=0;" edge="1" parent="s8kSpsHxrvDdrfxuILrK-1" source="s8kSpsHxrvDdrfxuILrK-29" target="s8kSpsHxrvDdrfxuILrK-34">
          <mxGeometry relative="1" as="geometry">
            <mxPoint x="774.3800000000001" y="619" as="targetPoint" />
          </mxGeometry>
        </mxCell>
        <mxCell id="s8kSpsHxrvDdrfxuILrK-28" value="False" style="edgeLabel;html=1;align=center;verticalAlign=middle;resizable=0;points=[];" vertex="1" connectable="0" parent="s8kSpsHxrvDdrfxuILrK-27">
          <mxGeometry x="-0.2299" y="1" relative="1" as="geometry">
            <mxPoint as="offset" />
          </mxGeometry>
        </mxCell>
        <mxCell id="s8kSpsHxrvDdrfxuILrK-29" value="elif pilih == 3" style="rhombus;whiteSpace=wrap;html=1;" vertex="1" parent="s8kSpsHxrvDdrfxuILrK-1">
          <mxGeometry x="974.3800000000001" y="579" width="100" height="80" as="geometry" />
        </mxCell>
        <mxCell id="s8kSpsHxrvDdrfxuILrK-30" style="edgeStyle=orthogonalEdgeStyle;rounded=0;orthogonalLoop=1;jettySize=auto;html=1;entryX=0.5;entryY=0;entryDx=0;entryDy=0;" edge="1" parent="s8kSpsHxrvDdrfxuILrK-1" source="s8kSpsHxrvDdrfxuILrK-34" target="s8kSpsHxrvDdrfxuILrK-40">
          <mxGeometry relative="1" as="geometry">
            <mxPoint x="935" y="761" as="targetPoint" />
            <Array as="points">
              <mxPoint x="1022" y="709" />
            </Array>
          </mxGeometry>
        </mxCell>
        <mxCell id="s8kSpsHxrvDdrfxuILrK-31" value="True" style="edgeLabel;html=1;align=center;verticalAlign=middle;resizable=0;points=[];" vertex="1" connectable="0" parent="s8kSpsHxrvDdrfxuILrK-30">
          <mxGeometry x="-0.5137" y="1" relative="1" as="geometry">
            <mxPoint x="1" as="offset" />
          </mxGeometry>
        </mxCell>
        <mxCell id="s8kSpsHxrvDdrfxuILrK-32" style="edgeStyle=orthogonalEdgeStyle;rounded=0;orthogonalLoop=1;jettySize=auto;html=1;" edge="1" parent="s8kSpsHxrvDdrfxuILrK-1" source="s8kSpsHxrvDdrfxuILrK-34" target="s8kSpsHxrvDdrfxuILrK-61">
          <mxGeometry relative="1" as="geometry">
            <mxPoint x="574.3800000000001" y="699" as="targetPoint" />
          </mxGeometry>
        </mxCell>
        <mxCell id="s8kSpsHxrvDdrfxuILrK-33" value="False" style="edgeLabel;html=1;align=center;verticalAlign=middle;resizable=0;points=[];" vertex="1" connectable="0" parent="s8kSpsHxrvDdrfxuILrK-32">
          <mxGeometry x="-0.4095" y="2" relative="1" as="geometry">
            <mxPoint x="1" as="offset" />
          </mxGeometry>
        </mxCell>
        <mxCell id="s8kSpsHxrvDdrfxuILrK-34" value="elif pilih == 4" style="rhombus;whiteSpace=wrap;html=1;" vertex="1" parent="s8kSpsHxrvDdrfxuILrK-1">
          <mxGeometry x="754.3800000000001" y="669" width="100" height="80" as="geometry" />
        </mxCell>
        <mxCell id="s8kSpsHxrvDdrfxuILrK-35" style="edgeStyle=orthogonalEdgeStyle;rounded=0;orthogonalLoop=1;jettySize=auto;html=1;exitX=1;exitY=1;exitDx=0;exitDy=0;" edge="1" parent="s8kSpsHxrvDdrfxuILrK-1" source="s8kSpsHxrvDdrfxuILrK-37">
          <mxGeometry relative="1" as="geometry">
            <mxPoint x="1255" y="708.666666666667" as="targetPoint" />
          </mxGeometry>
        </mxCell>
        <mxCell id="s8kSpsHxrvDdrfxuILrK-36" style="edgeStyle=orthogonalEdgeStyle;rounded=0;orthogonalLoop=1;jettySize=auto;html=1;" edge="1" parent="s8kSpsHxrvDdrfxuILrK-1" source="s8kSpsHxrvDdrfxuILrK-37">
          <mxGeometry relative="1" as="geometry">
            <mxPoint x="1630" y="689" as="targetPoint" />
          </mxGeometry>
        </mxCell>
        <mxCell id="s8kSpsHxrvDdrfxuILrK-37" value="Output Data User" style="shape=parallelogram;perimeter=parallelogramPerimeter;whiteSpace=wrap;html=1;fixedSize=1;" vertex="1" parent="s8kSpsHxrvDdrfxuILrK-1">
          <mxGeometry x="1097.5" y="664.0699999999999" width="150" height="50" as="geometry" />
        </mxCell>
        <mxCell id="s8kSpsHxrvDdrfxuILrK-38" style="edgeStyle=orthogonalEdgeStyle;rounded=0;orthogonalLoop=1;jettySize=auto;html=1;exitX=1;exitY=1;exitDx=0;exitDy=0;" edge="1" parent="s8kSpsHxrvDdrfxuILrK-1" source="s8kSpsHxrvDdrfxuILrK-40">
          <mxGeometry relative="1" as="geometry">
            <mxPoint x="1113.0000000000005" y="819.75" as="targetPoint" />
          </mxGeometry>
        </mxCell>
        <mxCell id="s8kSpsHxrvDdrfxuILrK-39" style="edgeStyle=orthogonalEdgeStyle;rounded=0;orthogonalLoop=1;jettySize=auto;html=1;" edge="1" parent="s8kSpsHxrvDdrfxuILrK-1" source="s8kSpsHxrvDdrfxuILrK-40" target="s8kSpsHxrvDdrfxuILrK-42">
          <mxGeometry relative="1" as="geometry" />
        </mxCell>
        <mxCell id="s8kSpsHxrvDdrfxuILrK-40" value="output&amp;nbsp;&lt;div&gt;data komik webtoon&amp;nbsp;&lt;div&gt;(judul, pembaca,&amp;nbsp;&lt;div&gt;genre, rating, tahun terbit)&lt;/div&gt;&lt;/div&gt;&lt;/div&gt;" style="shape=parallelogram;perimeter=parallelogramPerimeter;whiteSpace=wrap;html=1;fixedSize=1;" vertex="1" parent="s8kSpsHxrvDdrfxuILrK-1">
          <mxGeometry x="933" y="761" width="177.46478873239434" height="64.98591549295777" as="geometry" />
        </mxCell>
        <mxCell id="s8kSpsHxrvDdrfxuILrK-41" style="edgeStyle=orthogonalEdgeStyle;rounded=0;orthogonalLoop=1;jettySize=auto;html=1;entryX=0.5;entryY=0;entryDx=0;entryDy=0;" edge="1" parent="s8kSpsHxrvDdrfxuILrK-1" source="s8kSpsHxrvDdrfxuILrK-42" target="s8kSpsHxrvDdrfxuILrK-47">
          <mxGeometry relative="1" as="geometry" />
        </mxCell>
        <mxCell id="s8kSpsHxrvDdrfxuILrK-42" value="Input Judul Komik Webtoon&amp;nbsp;&lt;div&gt;Yang Akan Diperbarui&lt;/div&gt;" style="shape=parallelogram;perimeter=parallelogramPerimeter;whiteSpace=wrap;html=1;fixedSize=1;" vertex="1" parent="s8kSpsHxrvDdrfxuILrK-1">
          <mxGeometry x="926.0999999999999" y="871" width="191.27" height="60" as="geometry" />
        </mxCell>
        <mxCell id="s8kSpsHxrvDdrfxuILrK-43" style="edgeStyle=orthogonalEdgeStyle;rounded=0;orthogonalLoop=1;jettySize=auto;html=1;entryX=0.5;entryY=0;entryDx=0;entryDy=0;" edge="1" parent="s8kSpsHxrvDdrfxuILrK-1" source="s8kSpsHxrvDdrfxuILrK-47" target="s8kSpsHxrvDdrfxuILrK-50">
          <mxGeometry relative="1" as="geometry">
            <mxPoint x="902.9999999999995" y="1011" as="targetPoint" />
            <Array as="points">
              <mxPoint x="903" y="1011" />
            </Array>
          </mxGeometry>
        </mxCell>
        <mxCell id="s8kSpsHxrvDdrfxuILrK-44" value="False" style="edgeLabel;html=1;align=center;verticalAlign=middle;resizable=0;points=[];" vertex="1" connectable="0" parent="s8kSpsHxrvDdrfxuILrK-43">
          <mxGeometry x="-0.5531" relative="1" as="geometry">
            <mxPoint as="offset" />
          </mxGeometry>
        </mxCell>
        <mxCell id="s8kSpsHxrvDdrfxuILrK-45" style="edgeStyle=orthogonalEdgeStyle;rounded=0;orthogonalLoop=1;jettySize=auto;html=1;entryX=0.5;entryY=0;entryDx=0;entryDy=0;" edge="1" parent="s8kSpsHxrvDdrfxuILrK-1" source="s8kSpsHxrvDdrfxuILrK-47" target="s8kSpsHxrvDdrfxuILrK-53">
          <mxGeometry relative="1" as="geometry">
            <Array as="points">
              <mxPoint x="1172" y="1011" />
            </Array>
          </mxGeometry>
        </mxCell>
        <mxCell id="s8kSpsHxrvDdrfxuILrK-46" value="True" style="edgeLabel;html=1;align=center;verticalAlign=middle;resizable=0;points=[];" vertex="1" connectable="0" parent="s8kSpsHxrvDdrfxuILrK-45">
          <mxGeometry x="-0.4682" y="1" relative="1" as="geometry">
            <mxPoint as="offset" />
          </mxGeometry>
        </mxCell>
        <mxCell id="s8kSpsHxrvDdrfxuILrK-47" value="if judul in&lt;div&gt;komik_webtoon&lt;/div&gt;" style="rhombus;whiteSpace=wrap;html=1;" vertex="1" parent="s8kSpsHxrvDdrfxuILrK-1">
          <mxGeometry x="951.73" y="961" width="140" height="100" as="geometry" />
        </mxCell>
        <mxCell id="s8kSpsHxrvDdrfxuILrK-48" style="edgeStyle=orthogonalEdgeStyle;rounded=0;orthogonalLoop=1;jettySize=auto;html=1;entryX=0;entryY=0.5;entryDx=0;entryDy=0;" edge="1" parent="s8kSpsHxrvDdrfxuILrK-1" source="s8kSpsHxrvDdrfxuILrK-50" target="s8kSpsHxrvDdrfxuILrK-40">
          <mxGeometry relative="1" as="geometry">
            <Array as="points">
              <mxPoint x="803" y="1091" />
              <mxPoint x="803" y="793" />
            </Array>
          </mxGeometry>
        </mxCell>
        <mxCell id="s8kSpsHxrvDdrfxuILrK-49" style="edgeStyle=orthogonalEdgeStyle;rounded=0;orthogonalLoop=1;jettySize=auto;html=1;exitX=1;exitY=1;exitDx=0;exitDy=0;" edge="1" parent="s8kSpsHxrvDdrfxuILrK-1" source="s8kSpsHxrvDdrfxuILrK-50">
          <mxGeometry relative="1" as="geometry">
            <mxPoint x="990" y="1124" as="targetPoint" />
          </mxGeometry>
        </mxCell>
        <mxCell id="s8kSpsHxrvDdrfxuILrK-50" value="Output&amp;nbsp;&lt;div&gt;&quot;Data Tidak Valid.&quot;&lt;/div&gt;" style="shape=parallelogram;perimeter=parallelogramPerimeter;whiteSpace=wrap;html=1;fixedSize=1;" vertex="1" parent="s8kSpsHxrvDdrfxuILrK-1">
          <mxGeometry x="823" y="1071" width="160" height="60" as="geometry" />
        </mxCell>
        <mxCell id="s8kSpsHxrvDdrfxuILrK-51" value="" style="group" vertex="1" connectable="0" parent="s8kSpsHxrvDdrfxuILrK-1">
          <mxGeometry x="1091.73" y="1071" width="160" height="60" as="geometry" />
        </mxCell>
        <mxCell id="s8kSpsHxrvDdrfxuILrK-52" style="edgeStyle=orthogonalEdgeStyle;rounded=0;orthogonalLoop=1;jettySize=auto;html=1;" edge="1" parent="s8kSpsHxrvDdrfxuILrK-1" source="s8kSpsHxrvDdrfxuILrK-53">
          <mxGeometry relative="1" as="geometry">
            <mxPoint x="1172" y="1321" as="targetPoint" />
          </mxGeometry>
        </mxCell>
        <mxCell id="s8kSpsHxrvDdrfxuILrK-53" value="Output &quot;Data Berhasil Diubah.&quot;" style="shape=parallelogram;perimeter=parallelogramPerimeter;whiteSpace=wrap;html=1;fixedSize=1;" vertex="1" parent="s8kSpsHxrvDdrfxuILrK-1">
          <mxGeometry x="1091.73" y="1071" width="160" height="60" as="geometry" />
        </mxCell>
        <mxCell id="s8kSpsHxrvDdrfxuILrK-54" style="edgeStyle=orthogonalEdgeStyle;rounded=0;orthogonalLoop=1;jettySize=auto;html=1;exitX=1;exitY=1;exitDx=0;exitDy=0;" edge="1" parent="s8kSpsHxrvDdrfxuILrK-1" source="s8kSpsHxrvDdrfxuILrK-53">
          <mxGeometry relative="1" as="geometry">
            <mxPoint x="1261.73" y="1125" as="targetPoint" />
          </mxGeometry>
        </mxCell>
        <mxCell id="s8kSpsHxrvDdrfxuILrK-55" style="edgeStyle=orthogonalEdgeStyle;rounded=0;orthogonalLoop=1;jettySize=auto;html=1;" edge="1" parent="s8kSpsHxrvDdrfxuILrK-1" source="s8kSpsHxrvDdrfxuILrK-56">
          <mxGeometry relative="1" as="geometry">
            <mxPoint x="620" y="1051" as="targetPoint" />
          </mxGeometry>
        </mxCell>
        <mxCell id="s8kSpsHxrvDdrfxuILrK-56" value="Input Judul Yang&amp;nbsp;&lt;div&gt;Akan Dihapus&lt;/div&gt;" style="shape=parallelogram;perimeter=parallelogramPerimeter;whiteSpace=wrap;html=1;fixedSize=1;" vertex="1" parent="s8kSpsHxrvDdrfxuILrK-1">
          <mxGeometry x="525" y="961" width="190" height="60" as="geometry" />
        </mxCell>
        <mxCell id="s8kSpsHxrvDdrfxuILrK-57" style="edgeStyle=orthogonalEdgeStyle;rounded=0;orthogonalLoop=1;jettySize=auto;html=1;entryX=0.5;entryY=0;entryDx=0;entryDy=0;" edge="1" parent="s8kSpsHxrvDdrfxuILrK-1" source="s8kSpsHxrvDdrfxuILrK-61" target="s8kSpsHxrvDdrfxuILrK-64">
          <mxGeometry relative="1" as="geometry">
            <Array as="points">
              <mxPoint x="625" y="801" />
            </Array>
          </mxGeometry>
        </mxCell>
        <mxCell id="s8kSpsHxrvDdrfxuILrK-58" value="True" style="edgeLabel;html=1;align=center;verticalAlign=middle;resizable=0;points=[];" vertex="1" connectable="0" parent="s8kSpsHxrvDdrfxuILrK-57">
          <mxGeometry x="-0.2322" y="-2" relative="1" as="geometry">
            <mxPoint x="-1" as="offset" />
          </mxGeometry>
        </mxCell>
        <mxCell id="s8kSpsHxrvDdrfxuILrK-59" style="edgeStyle=orthogonalEdgeStyle;rounded=0;orthogonalLoop=1;jettySize=auto;html=1;entryX=0.5;entryY=0;entryDx=0;entryDy=0;" edge="1" parent="s8kSpsHxrvDdrfxuILrK-1" source="s8kSpsHxrvDdrfxuILrK-61" target="s8kSpsHxrvDdrfxuILrK-80">
          <mxGeometry relative="1" as="geometry">
            <mxPoint x="345" y="846" as="targetPoint" />
            <Array as="points">
              <mxPoint x="248" y="801" />
              <mxPoint x="248" y="841" />
            </Array>
          </mxGeometry>
        </mxCell>
        <mxCell id="s8kSpsHxrvDdrfxuILrK-60" value="False" style="edgeLabel;html=1;align=center;verticalAlign=middle;resizable=0;points=[];" vertex="1" connectable="0" parent="s8kSpsHxrvDdrfxuILrK-59">
          <mxGeometry x="-0.4756" y="1" relative="1" as="geometry">
            <mxPoint x="-1" as="offset" />
          </mxGeometry>
        </mxCell>
        <mxCell id="s8kSpsHxrvDdrfxuILrK-61" value="elif pilih == 5" style="rhombus;whiteSpace=wrap;html=1;" vertex="1" parent="s8kSpsHxrvDdrfxuILrK-1">
          <mxGeometry x="390" y="761" width="100" height="80" as="geometry" />
        </mxCell>
        <mxCell id="s8kSpsHxrvDdrfxuILrK-62" style="edgeStyle=orthogonalEdgeStyle;rounded=0;orthogonalLoop=1;jettySize=auto;html=1;exitX=1;exitY=1;exitDx=0;exitDy=0;" edge="1" parent="s8kSpsHxrvDdrfxuILrK-1" source="s8kSpsHxrvDdrfxuILrK-64">
          <mxGeometry relative="1" as="geometry">
            <mxPoint x="725" y="919.6363636363635" as="targetPoint" />
          </mxGeometry>
        </mxCell>
        <mxCell id="s8kSpsHxrvDdrfxuILrK-63" style="edgeStyle=orthogonalEdgeStyle;rounded=0;orthogonalLoop=1;jettySize=auto;html=1;" edge="1" parent="s8kSpsHxrvDdrfxuILrK-1" source="s8kSpsHxrvDdrfxuILrK-64">
          <mxGeometry relative="1" as="geometry">
            <mxPoint x="624.7323943661972" y="961" as="targetPoint" />
          </mxGeometry>
        </mxCell>
        <mxCell id="s8kSpsHxrvDdrfxuILrK-64" value="output&amp;nbsp;&lt;div&gt;data komik webtoon&amp;nbsp;&lt;div&gt;(judul, pembaca,&amp;nbsp;&lt;div&gt;genre, rating, tahun terbit)&lt;/div&gt;&lt;/div&gt;&lt;/div&gt;" style="shape=parallelogram;perimeter=parallelogramPerimeter;whiteSpace=wrap;html=1;fixedSize=1;" vertex="1" parent="s8kSpsHxrvDdrfxuILrK-1">
          <mxGeometry x="536" y="861" width="177.46478873239434" height="64.98591549295777" as="geometry" />
        </mxCell>
        <mxCell id="s8kSpsHxrvDdrfxuILrK-65" style="edgeStyle=orthogonalEdgeStyle;rounded=0;orthogonalLoop=1;jettySize=auto;html=1;entryX=0.5;entryY=0;entryDx=0;entryDy=0;" edge="1" parent="s8kSpsHxrvDdrfxuILrK-1" source="s8kSpsHxrvDdrfxuILrK-69" target="s8kSpsHxrvDdrfxuILrK-72">
          <mxGeometry relative="1" as="geometry">
            <mxPoint x="735" y="1151" as="targetPoint" />
            <Array as="points">
              <mxPoint x="750" y="1091" />
            </Array>
          </mxGeometry>
        </mxCell>
        <mxCell id="s8kSpsHxrvDdrfxuILrK-66" value="True" style="edgeLabel;html=1;align=center;verticalAlign=middle;resizable=0;points=[];" vertex="1" connectable="0" parent="s8kSpsHxrvDdrfxuILrK-65">
          <mxGeometry x="-0.6073" y="-1" relative="1" as="geometry">
            <mxPoint as="offset" />
          </mxGeometry>
        </mxCell>
        <mxCell id="s8kSpsHxrvDdrfxuILrK-67" style="edgeStyle=orthogonalEdgeStyle;rounded=0;orthogonalLoop=1;jettySize=auto;html=1;entryX=0.5;entryY=0;entryDx=0;entryDy=0;" edge="1" parent="s8kSpsHxrvDdrfxuILrK-1" source="s8kSpsHxrvDdrfxuILrK-69" target="s8kSpsHxrvDdrfxuILrK-75">
          <mxGeometry relative="1" as="geometry">
            <mxPoint x="494.99999999999955" y="1151" as="targetPoint" />
            <Array as="points">
              <mxPoint x="495" y="1091" />
            </Array>
          </mxGeometry>
        </mxCell>
        <mxCell id="s8kSpsHxrvDdrfxuILrK-68" value="False" style="edgeLabel;html=1;align=center;verticalAlign=middle;resizable=0;points=[];" vertex="1" connectable="0" parent="s8kSpsHxrvDdrfxuILrK-67">
          <mxGeometry x="-0.618" y="1" relative="1" as="geometry">
            <mxPoint x="1" as="offset" />
          </mxGeometry>
        </mxCell>
        <mxCell id="s8kSpsHxrvDdrfxuILrK-69" value="if judul in&lt;div&gt;komik_webtoon&lt;/div&gt;" style="rhombus;whiteSpace=wrap;html=1;" vertex="1" parent="s8kSpsHxrvDdrfxuILrK-1">
          <mxGeometry x="548.1300000000001" y="1051" width="143.75" height="80" as="geometry" />
        </mxCell>
        <mxCell id="s8kSpsHxrvDdrfxuILrK-70" style="edgeStyle=orthogonalEdgeStyle;rounded=0;orthogonalLoop=1;jettySize=auto;html=1;" edge="1" parent="s8kSpsHxrvDdrfxuILrK-1" source="s8kSpsHxrvDdrfxuILrK-72">
          <mxGeometry relative="1" as="geometry">
            <mxPoint x="750" y="1321" as="targetPoint" />
          </mxGeometry>
        </mxCell>
        <mxCell id="s8kSpsHxrvDdrfxuILrK-71" style="edgeStyle=orthogonalEdgeStyle;rounded=0;orthogonalLoop=1;jettySize=auto;html=1;exitX=1;exitY=1;exitDx=0;exitDy=0;" edge="1" parent="s8kSpsHxrvDdrfxuILrK-1" source="s8kSpsHxrvDdrfxuILrK-72">
          <mxGeometry relative="1" as="geometry">
            <mxPoint x="840" y="1224" as="targetPoint" />
          </mxGeometry>
        </mxCell>
        <mxCell id="s8kSpsHxrvDdrfxuILrK-72" value="Output&lt;div&gt;&quot;Data Berhasil Dihapus.&quot;&lt;/div&gt;" style="shape=parallelogram;perimeter=parallelogramPerimeter;whiteSpace=wrap;html=1;fixedSize=1;" vertex="1" parent="s8kSpsHxrvDdrfxuILrK-1">
          <mxGeometry x="670" y="1171" width="160" height="60" as="geometry" />
        </mxCell>
        <mxCell id="s8kSpsHxrvDdrfxuILrK-73" style="edgeStyle=orthogonalEdgeStyle;rounded=0;orthogonalLoop=1;jettySize=auto;html=1;entryX=0;entryY=0.5;entryDx=0;entryDy=0;" edge="1" parent="s8kSpsHxrvDdrfxuILrK-1" source="s8kSpsHxrvDdrfxuILrK-75" target="s8kSpsHxrvDdrfxuILrK-64">
          <mxGeometry relative="1" as="geometry">
            <Array as="points">
              <mxPoint x="390" y="1201" />
              <mxPoint x="390" y="893" />
              <mxPoint x="540" y="893" />
            </Array>
          </mxGeometry>
        </mxCell>
        <mxCell id="s8kSpsHxrvDdrfxuILrK-74" style="edgeStyle=orthogonalEdgeStyle;rounded=0;orthogonalLoop=1;jettySize=auto;html=1;exitX=1;exitY=1;exitDx=0;exitDy=0;" edge="1" parent="s8kSpsHxrvDdrfxuILrK-1" source="s8kSpsHxrvDdrfxuILrK-75">
          <mxGeometry relative="1" as="geometry">
            <mxPoint x="590" y="1225" as="targetPoint" />
          </mxGeometry>
        </mxCell>
        <mxCell id="s8kSpsHxrvDdrfxuILrK-75" value="Output&amp;nbsp;&lt;div&gt;&quot;Komik Tidak Ditemukan.&quot;&lt;/div&gt;" style="shape=parallelogram;perimeter=parallelogramPerimeter;whiteSpace=wrap;html=1;fixedSize=1;" vertex="1" parent="s8kSpsHxrvDdrfxuILrK-1">
          <mxGeometry x="410" y="1171" width="170" height="60" as="geometry" />
        </mxCell>
        <mxCell id="s8kSpsHxrvDdrfxuILrK-76" style="edgeStyle=orthogonalEdgeStyle;rounded=0;orthogonalLoop=1;jettySize=auto;html=1;exitX=1;exitY=0.5;exitDx=0;exitDy=0;entryX=0;entryY=0.5;entryDx=0;entryDy=0;" edge="1" parent="s8kSpsHxrvDdrfxuILrK-1" source="s8kSpsHxrvDdrfxuILrK-80">
          <mxGeometry relative="1" as="geometry">
            <mxPoint x="1247.38" y="1410" as="targetPoint" />
            <mxPoint x="297.5" y="896" as="sourcePoint" />
            <Array as="points">
              <mxPoint x="350.3800000000001" y="891" />
              <mxPoint x="350.3800000000001" y="1410" />
            </Array>
          </mxGeometry>
        </mxCell>
        <mxCell id="s8kSpsHxrvDdrfxuILrK-77" value="True" style="edgeLabel;html=1;align=center;verticalAlign=middle;resizable=0;points=[];" vertex="1" connectable="0" parent="s8kSpsHxrvDdrfxuILrK-76">
          <mxGeometry x="-0.9001" relative="1" as="geometry">
            <mxPoint as="offset" />
          </mxGeometry>
        </mxCell>
        <mxCell id="s8kSpsHxrvDdrfxuILrK-78" style="edgeStyle=orthogonalEdgeStyle;rounded=0;orthogonalLoop=1;jettySize=auto;html=1;entryX=0.5;entryY=0;entryDx=0;entryDy=0;" edge="1" parent="s8kSpsHxrvDdrfxuILrK-1" source="s8kSpsHxrvDdrfxuILrK-80" target="s8kSpsHxrvDdrfxuILrK-83">
          <mxGeometry relative="1" as="geometry">
            <Array as="points">
              <mxPoint x="149" y="891" />
            </Array>
          </mxGeometry>
        </mxCell>
        <mxCell id="s8kSpsHxrvDdrfxuILrK-79" value="False" style="edgeLabel;html=1;align=center;verticalAlign=middle;resizable=0;points=[];" vertex="1" connectable="0" parent="s8kSpsHxrvDdrfxuILrK-78">
          <mxGeometry x="-0.6664" y="1" relative="1" as="geometry">
            <mxPoint as="offset" />
          </mxGeometry>
        </mxCell>
        <mxCell id="s8kSpsHxrvDdrfxuILrK-80" value="elif pilih == 6" style="rhombus;whiteSpace=wrap;html=1;" vertex="1" parent="s8kSpsHxrvDdrfxuILrK-1">
          <mxGeometry x="197.5" y="851" width="100" height="80" as="geometry" />
        </mxCell>
        <mxCell id="s8kSpsHxrvDdrfxuILrK-81" style="edgeStyle=orthogonalEdgeStyle;rounded=0;orthogonalLoop=1;jettySize=auto;html=1;entryX=0;entryY=0.5;entryDx=0;entryDy=0;" edge="1" parent="s8kSpsHxrvDdrfxuILrK-1" source="s8kSpsHxrvDdrfxuILrK-83" target="s8kSpsHxrvDdrfxuILrK-12">
          <mxGeometry relative="1" as="geometry">
            <mxPoint x="20" y="421" as="targetPoint" />
            <Array as="points">
              <mxPoint y="981" />
              <mxPoint y="120" />
            </Array>
          </mxGeometry>
        </mxCell>
        <mxCell id="s8kSpsHxrvDdrfxuILrK-82" style="edgeStyle=orthogonalEdgeStyle;rounded=0;orthogonalLoop=1;jettySize=auto;html=1;exitX=1;exitY=1;exitDx=0;exitDy=0;" edge="1" parent="s8kSpsHxrvDdrfxuILrK-1" source="s8kSpsHxrvDdrfxuILrK-83">
          <mxGeometry relative="1" as="geometry">
            <mxPoint x="260" y="997.6666666666665" as="targetPoint" />
          </mxGeometry>
        </mxCell>
        <mxCell id="s8kSpsHxrvDdrfxuILrK-83" value="Output&lt;div&gt;&quot;Pilihan tidak valid. pilih angka 1-6&quot;&lt;/div&gt;" style="shape=parallelogram;perimeter=parallelogramPerimeter;whiteSpace=wrap;html=1;fixedSize=1;container=0;" vertex="1" parent="s8kSpsHxrvDdrfxuILrK-1">
          <mxGeometry x="39.38000000000011" y="961" width="220" height="40" as="geometry" />
        </mxCell>
        <mxCell id="s8kSpsHxrvDdrfxuILrK-84" value="" style="endArrow=classic;html=1;rounded=0;" edge="1" parent="s8kSpsHxrvDdrfxuILrK-1">
          <mxGeometry width="50" height="50" relative="1" as="geometry">
            <mxPoint x="750" y="1321" as="sourcePoint" />
            <mxPoint x="1630" y="1321" as="targetPoint" />
          </mxGeometry>
        </mxCell>
        <mxCell id="s8kSpsHxrvDdrfxuILrK-85" value="" style="endArrow=classic;html=1;rounded=0;" edge="1" parent="s8kSpsHxrvDdrfxuILrK-1">
          <mxGeometry width="50" height="50" relative="1" as="geometry">
            <mxPoint x="1630" y="1321" as="sourcePoint" />
            <mxPoint x="1630" y="121" as="targetPoint" />
          </mxGeometry>
        </mxCell>
        <mxCell id="s8kSpsHxrvDdrfxuILrK-86" value="" style="endArrow=classic;html=1;rounded=0;entryX=1;entryY=0.5;entryDx=0;entryDy=0;" edge="1" parent="s8kSpsHxrvDdrfxuILrK-1" target="s8kSpsHxrvDdrfxuILrK-12">
          <mxGeometry width="50" height="50" relative="1" as="geometry">
            <mxPoint x="1630" y="121" as="sourcePoint" />
            <mxPoint x="1680" y="71" as="targetPoint" />
          </mxGeometry>
        </mxCell>
        <mxCell id="s8kSpsHxrvDdrfxuILrK-87" style="edgeStyle=orthogonalEdgeStyle;rounded=0;orthogonalLoop=1;jettySize=auto;html=1;" edge="1" parent="s8kSpsHxrvDdrfxuILrK-1" target="s8kSpsHxrvDdrfxuILrK-12">
          <mxGeometry relative="1" as="geometry">
            <mxPoint x="1307.38" y="60" as="sourcePoint" />
          </mxGeometry>
        </mxCell>
        <mxCell id="s8kSpsHxrvDdrfxuILrK-88" value="FLOWCHART&lt;div&gt;MENU UTAMA&lt;/div&gt;" style="shape=process;whiteSpace=wrap;html=1;backgroundOutline=1;" vertex="1" parent="s8kSpsHxrvDdrfxuILrK-1">
          <mxGeometry x="1247.5" y="1380" width="120" height="60" as="geometry" />
        </mxCell>
        <mxCell id="s8kSpsHxrvDdrfxuILrK-89" value="A" style="shape=offPageConnector;whiteSpace=wrap;html=1;" vertex="1" parent="s8kSpsHxrvDdrfxuILrK-1">
          <mxGeometry x="1277.5" width="60" height="60" as="geometry" />
        </mxCell>
      </root>
    </mxGraphModel>
  </diagram>
  <diagram id="FWJ-_8eKtdAlGvU2qMhG" name="Menu Pengguna">
    <mxGraphModel dx="1689" dy="913" grid="1" gridSize="10" guides="1" tooltips="1" connect="1" arrows="1" fold="1" page="1" pageScale="1" pageWidth="850" pageHeight="1100" math="0" shadow="0">
      <root>
        <mxCell id="0" />
        <mxCell id="1" parent="0" />
        <mxCell id="Kai6SOOak5LAitryeY8G-1" style="edgeStyle=orthogonalEdgeStyle;rounded=0;orthogonalLoop=1;jettySize=auto;html=1;exitX=0.5;exitY=1;exitDx=0;exitDy=0;entryX=0.5;entryY=0;entryDx=0;entryDy=0;" edge="1" parent="1" source="Kai6SOOak5LAitryeY8G-3" target="Kai6SOOak5LAitryeY8G-6">
          <mxGeometry relative="1" as="geometry" />
        </mxCell>
        <mxCell id="Kai6SOOak5LAitryeY8G-2" style="edgeStyle=orthogonalEdgeStyle;rounded=0;orthogonalLoop=1;jettySize=auto;html=1;exitX=1;exitY=1;exitDx=0;exitDy=0;" edge="1" parent="1" source="Kai6SOOak5LAitryeY8G-3">
          <mxGeometry relative="1" as="geometry">
            <mxPoint x="808" y="197" as="targetPoint" />
          </mxGeometry>
        </mxCell>
        <mxCell id="Kai6SOOak5LAitryeY8G-3" value="&lt;div&gt;&lt;br&gt;&lt;/div&gt;&lt;div&gt;output&lt;/div&gt;&quot;Menu Pengguna&quot;&lt;div&gt;&lt;br&gt;&lt;/div&gt;" style="shape=parallelogram;perimeter=parallelogramPerimeter;whiteSpace=wrap;html=1;fixedSize=1;" vertex="1" parent="1">
          <mxGeometry x="646.9399999999999" y="145" width="140.71" height="60" as="geometry" />
        </mxCell>
        <mxCell id="Kai6SOOak5LAitryeY8G-4" style="edgeStyle=orthogonalEdgeStyle;rounded=0;orthogonalLoop=1;jettySize=auto;html=1;" edge="1" parent="1" source="Kai6SOOak5LAitryeY8G-6" target="Kai6SOOak5LAitryeY8G-13">
          <mxGeometry relative="1" as="geometry">
            <mxPoint x="728" y="365" as="targetPoint" />
          </mxGeometry>
        </mxCell>
        <mxCell id="Kai6SOOak5LAitryeY8G-5" style="edgeStyle=orthogonalEdgeStyle;rounded=0;orthogonalLoop=1;jettySize=auto;html=1;entryX=0;entryY=0.5;entryDx=0;entryDy=0;exitX=0;exitY=0.5;exitDx=0;exitDy=0;" edge="1" parent="1" source="Kai6SOOak5LAitryeY8G-52" target="Kai6SOOak5LAitryeY8G-3">
          <mxGeometry relative="1" as="geometry">
            <mxPoint x="38" y="425" as="targetPoint" />
            <Array as="points">
              <mxPoint x="53" y="1170" />
              <mxPoint x="28" y="1170" />
              <mxPoint x="28" y="175" />
            </Array>
            <mxPoint x="-72.0133333333331" y="1206.8666666666668" as="sourcePoint" />
          </mxGeometry>
        </mxCell>
        <mxCell id="Kai6SOOak5LAitryeY8G-6" value="input&amp;nbsp;&lt;div&gt;pilihan&lt;/div&gt;" style="shape=parallelogram;perimeter=parallelogramPerimeter;whiteSpace=wrap;html=1;fixedSize=1;" vertex="1" parent="1">
          <mxGeometry x="657.29" y="285" width="120" height="60" as="geometry" />
        </mxCell>
        <mxCell id="Kai6SOOak5LAitryeY8G-7" value="" style="endArrow=classic;html=1;rounded=0;entryX=1;entryY=0.5;entryDx=0;entryDy=0;" edge="1" parent="1" target="Kai6SOOak5LAitryeY8G-3">
          <mxGeometry width="50" height="50" relative="1" as="geometry">
            <mxPoint x="1088" y="175" as="sourcePoint" />
            <mxPoint x="988" y="165" as="targetPoint" />
          </mxGeometry>
        </mxCell>
        <mxCell id="Kai6SOOak5LAitryeY8G-8" style="edgeStyle=orthogonalEdgeStyle;rounded=0;orthogonalLoop=1;jettySize=auto;html=1;" edge="1" parent="1" source="Kai6SOOak5LAitryeY8G-38">
          <mxGeometry relative="1" as="geometry">
            <mxPoint x="1088" y="1131" as="targetPoint" />
          </mxGeometry>
        </mxCell>
        <mxCell id="Kai6SOOak5LAitryeY8G-9" style="edgeStyle=orthogonalEdgeStyle;rounded=0;orthogonalLoop=1;jettySize=auto;html=1;entryX=0.5;entryY=0;entryDx=0;entryDy=0;" edge="1" parent="1" source="Kai6SOOak5LAitryeY8G-13" target="Kai6SOOak5LAitryeY8G-16">
          <mxGeometry relative="1" as="geometry">
            <mxPoint x="878" y="493" as="targetPoint" />
            <Array as="points">
              <mxPoint x="866" y="457" />
            </Array>
          </mxGeometry>
        </mxCell>
        <mxCell id="Kai6SOOak5LAitryeY8G-10" value="True" style="edgeLabel;html=1;align=center;verticalAlign=middle;resizable=0;points=[];" vertex="1" connectable="0" parent="Kai6SOOak5LAitryeY8G-9">
          <mxGeometry x="-0.7237" y="2" relative="1" as="geometry">
            <mxPoint x="-1" as="offset" />
          </mxGeometry>
        </mxCell>
        <mxCell id="Kai6SOOak5LAitryeY8G-11" style="edgeStyle=orthogonalEdgeStyle;rounded=0;orthogonalLoop=1;jettySize=auto;html=1;entryX=0.5;entryY=0;entryDx=0;entryDy=0;" edge="1" parent="1" source="Kai6SOOak5LAitryeY8G-13" target="Kai6SOOak5LAitryeY8G-19">
          <mxGeometry relative="1" as="geometry">
            <mxPoint x="612" y="535" as="targetPoint" />
          </mxGeometry>
        </mxCell>
        <mxCell id="Kai6SOOak5LAitryeY8G-12" value="False" style="edgeLabel;html=1;align=center;verticalAlign=middle;resizable=0;points=[];" vertex="1" connectable="0" parent="Kai6SOOak5LAitryeY8G-11">
          <mxGeometry x="-0.5557" y="2" relative="1" as="geometry">
            <mxPoint x="-1" as="offset" />
          </mxGeometry>
        </mxCell>
        <mxCell id="Kai6SOOak5LAitryeY8G-13" value="if&amp;nbsp; pilih == 1" style="rhombus;whiteSpace=wrap;html=1;" vertex="1" parent="1">
          <mxGeometry x="667.999014084507" y="414" width="98.59154929577463" height="86.64788732394368" as="geometry" />
        </mxCell>
        <mxCell id="Kai6SOOak5LAitryeY8G-14" style="edgeStyle=orthogonalEdgeStyle;rounded=0;orthogonalLoop=1;jettySize=auto;html=1;exitX=1;exitY=1;exitDx=0;exitDy=0;" edge="1" parent="1" source="Kai6SOOak5LAitryeY8G-16">
          <mxGeometry relative="1" as="geometry">
            <mxPoint x="958" y="561" as="targetPoint" />
          </mxGeometry>
        </mxCell>
        <mxCell id="Kai6SOOak5LAitryeY8G-15" style="edgeStyle=orthogonalEdgeStyle;rounded=0;orthogonalLoop=1;jettySize=auto;html=1;" edge="1" parent="1" source="Kai6SOOak5LAitryeY8G-16">
          <mxGeometry relative="1" as="geometry">
            <mxPoint x="1088" y="535.4978873239438" as="targetPoint" />
          </mxGeometry>
        </mxCell>
        <mxCell id="Kai6SOOak5LAitryeY8G-16" value="output&amp;nbsp;&lt;div&gt;data komik webtoon&amp;nbsp;&lt;div&gt;(judul, pembaca,&amp;nbsp;&lt;div&gt;genre, rating, tahun terbit)&lt;/div&gt;&lt;/div&gt;&lt;/div&gt;" style="shape=parallelogram;perimeter=parallelogramPerimeter;whiteSpace=wrap;html=1;fixedSize=1;" vertex="1" parent="1">
          <mxGeometry x="777.2856338028168" y="503.00492957746496" width="177.46478873239434" height="64.98591549295777" as="geometry" />
        </mxCell>
        <mxCell id="Kai6SOOak5LAitryeY8G-17" style="edgeStyle=orthogonalEdgeStyle;rounded=0;orthogonalLoop=1;jettySize=auto;html=1;entryX=0.5;entryY=0;entryDx=0;entryDy=0;" edge="1" parent="1" source="Kai6SOOak5LAitryeY8G-19" target="Kai6SOOak5LAitryeY8G-29">
          <mxGeometry relative="1" as="geometry">
            <mxPoint x="503.70422535211264" y="659.7947887323946" as="targetPoint" />
            <Array as="points">
              <mxPoint x="504" y="584" />
            </Array>
          </mxGeometry>
        </mxCell>
        <mxCell id="Kai6SOOak5LAitryeY8G-18" value="False" style="edgeLabel;html=1;align=center;verticalAlign=middle;resizable=0;points=[];" vertex="1" connectable="0" parent="Kai6SOOak5LAitryeY8G-17">
          <mxGeometry x="-0.6402" relative="1" as="geometry">
            <mxPoint x="16" y="-1" as="offset" />
          </mxGeometry>
        </mxCell>
        <mxCell id="Kai6SOOak5LAitryeY8G-19" value="if pilih == 2" style="rhombus;whiteSpace=wrap;html=1;" vertex="1" parent="1">
          <mxGeometry x="562.8591549295775" y="540.6539436619721" width="98.59154929577463" height="86.64788732394368" as="geometry" />
        </mxCell>
        <mxCell id="Kai6SOOak5LAitryeY8G-20" value="" style="edgeStyle=orthogonalEdgeStyle;rounded=0;orthogonalLoop=1;jettySize=auto;html=1;entryX=0;entryY=0.5;entryDx=0;entryDy=0;" edge="1" parent="1" source="Kai6SOOak5LAitryeY8G-19" target="Kai6SOOak5LAitryeY8G-24">
          <mxGeometry relative="1" as="geometry">
            <mxPoint x="691.0281690140846" y="670.6257746478875" as="targetPoint" />
            <Array as="points">
              <mxPoint x="727" y="583.4300000000001" />
              <mxPoint x="727" y="659.4300000000001" />
            </Array>
            <mxPoint x="661" y="583.4300000000001" as="sourcePoint" />
          </mxGeometry>
        </mxCell>
        <mxCell id="Kai6SOOak5LAitryeY8G-21" value="True" style="edgeLabel;html=1;align=center;verticalAlign=middle;resizable=0;points=[];" vertex="1" connectable="0" parent="Kai6SOOak5LAitryeY8G-20">
          <mxGeometry x="-0.6224" relative="1" as="geometry">
            <mxPoint as="offset" />
          </mxGeometry>
        </mxCell>
        <mxCell id="Kai6SOOak5LAitryeY8G-22" style="edgeStyle=orthogonalEdgeStyle;rounded=0;orthogonalLoop=1;jettySize=auto;html=1;entryX=0.5;entryY=0;entryDx=0;entryDy=0;" edge="1" parent="1" source="Kai6SOOak5LAitryeY8G-24">
          <mxGeometry relative="1" as="geometry">
            <mxPoint x="726.73" y="733" as="targetPoint" />
          </mxGeometry>
        </mxCell>
        <mxCell id="Kai6SOOak5LAitryeY8G-23" style="edgeStyle=orthogonalEdgeStyle;rounded=0;orthogonalLoop=1;jettySize=auto;html=1;exitX=1;exitY=1;exitDx=0;exitDy=0;" edge="1" parent="1" source="Kai6SOOak5LAitryeY8G-24">
          <mxGeometry relative="1" as="geometry">
            <mxPoint x="818" y="685.6153846153848" as="targetPoint" />
          </mxGeometry>
        </mxCell>
        <mxCell id="Kai6SOOak5LAitryeY8G-24" value="output&amp;nbsp;&lt;div&gt;data komik webtoon&amp;nbsp;&lt;div&gt;(judul, pembaca,&amp;nbsp;&lt;div&gt;genre, rating, tahun terbit)&lt;/div&gt;&lt;/div&gt;&lt;/div&gt;" style="shape=parallelogram;perimeter=parallelogramPerimeter;whiteSpace=wrap;html=1;fixedSize=1;" vertex="1" parent="1">
          <mxGeometry x="637.9956338028169" y="627.0849295774651" width="177.46478873239434" height="64.98591549295777" as="geometry" />
        </mxCell>
        <mxCell id="Kai6SOOak5LAitryeY8G-25" style="edgeStyle=orthogonalEdgeStyle;rounded=0;orthogonalLoop=1;jettySize=auto;html=1;entryX=0.5;entryY=0;entryDx=0;entryDy=0;" edge="1" parent="1" source="Kai6SOOak5LAitryeY8G-29" target="Kai6SOOak5LAitryeY8G-32">
          <mxGeometry relative="1" as="geometry">
            <mxPoint x="572.7183098591549" y="937.5466197183105" as="targetPoint" />
          </mxGeometry>
        </mxCell>
        <mxCell id="Kai6SOOak5LAitryeY8G-26" value="True" style="edgeLabel;html=1;align=center;verticalAlign=middle;resizable=0;points=[];container=0;" vertex="1" connectable="0" parent="Kai6SOOak5LAitryeY8G-25">
          <mxGeometry x="0.1441" relative="1" as="geometry">
            <mxPoint x="-63" as="offset" />
          </mxGeometry>
        </mxCell>
        <mxCell id="Kai6SOOak5LAitryeY8G-27" style="edgeStyle=orthogonalEdgeStyle;rounded=0;orthogonalLoop=1;jettySize=auto;html=1;entryX=0.5;entryY=0;entryDx=0;entryDy=0;" edge="1" parent="1" source="Kai6SOOak5LAitryeY8G-29" target="Kai6SOOak5LAitryeY8G-37">
          <mxGeometry relative="1" as="geometry">
            <mxPoint x="257.2253521126761" y="883.3916901408456" as="targetPoint" />
          </mxGeometry>
        </mxCell>
        <mxCell id="Kai6SOOak5LAitryeY8G-28" value="False" style="edgeLabel;html=1;align=center;verticalAlign=middle;resizable=0;points=[];container=0;" vertex="1" connectable="0" parent="Kai6SOOak5LAitryeY8G-27">
          <mxGeometry x="-0.2299" y="1" relative="1" as="geometry">
            <mxPoint x="15" y="-1" as="offset" />
          </mxGeometry>
        </mxCell>
        <mxCell id="Kai6SOOak5LAitryeY8G-29" value="if pilih == 3" style="rhombus;whiteSpace=wrap;html=1;container=0;" vertex="1" parent="1">
          <mxGeometry x="454.2684507042254" y="802.7077464788736" width="98.59154929577463" height="86.64788732394368" as="geometry" />
        </mxCell>
        <mxCell id="Kai6SOOak5LAitryeY8G-30" style="edgeStyle=orthogonalEdgeStyle;rounded=0;orthogonalLoop=1;jettySize=auto;html=1;" edge="1" parent="1" source="Kai6SOOak5LAitryeY8G-32">
          <mxGeometry relative="1" as="geometry">
            <mxPoint x="1088" y="914.9000000000005" as="targetPoint" />
          </mxGeometry>
        </mxCell>
        <mxCell id="Kai6SOOak5LAitryeY8G-31" style="edgeStyle=orthogonalEdgeStyle;rounded=0;orthogonalLoop=1;jettySize=auto;html=1;exitX=1;exitY=1;exitDx=0;exitDy=0;" edge="1" parent="1" source="Kai6SOOak5LAitryeY8G-32">
          <mxGeometry relative="1" as="geometry">
            <mxPoint x="746.75" y="933.2352941176471" as="targetPoint" />
          </mxGeometry>
        </mxCell>
        <mxCell id="Kai6SOOak5LAitryeY8G-32" value="output&lt;div&gt;list&amp;nbsp;&lt;span style=&quot;background-color: initial;&quot;&gt;data komik webtoon favorite&lt;/span&gt;&lt;/div&gt;" style="shape=parallelogram;perimeter=parallelogramPerimeter;whiteSpace=wrap;html=1;fixedSize=1;container=0;" vertex="1" parent="1">
          <mxGeometry x="612.1500000000001" y="890.0700000000006" width="125.85" height="49.66" as="geometry" />
        </mxCell>
        <mxCell id="Kai6SOOak5LAitryeY8G-33" style="edgeStyle=orthogonalEdgeStyle;rounded=0;orthogonalLoop=1;jettySize=auto;html=1;entryX=0.5;entryY=0;entryDx=0;entryDy=0;" edge="1" parent="1" source="Kai6SOOak5LAitryeY8G-37" target="Kai6SOOak5LAitryeY8G-42">
          <mxGeometry relative="1" as="geometry" />
        </mxCell>
        <mxCell id="Kai6SOOak5LAitryeY8G-34" value="True" style="edgeLabel;html=1;align=center;verticalAlign=middle;resizable=0;points=[];" vertex="1" connectable="0" parent="Kai6SOOak5LAitryeY8G-33">
          <mxGeometry x="-0.3748" relative="1" as="geometry">
            <mxPoint as="offset" />
          </mxGeometry>
        </mxCell>
        <mxCell id="Kai6SOOak5LAitryeY8G-35" style="edgeStyle=orthogonalEdgeStyle;rounded=0;orthogonalLoop=1;jettySize=auto;html=1;entryX=0.5;entryY=0;entryDx=0;entryDy=0;" edge="1" parent="1" source="Kai6SOOak5LAitryeY8G-37" target="Kai6SOOak5LAitryeY8G-47">
          <mxGeometry relative="1" as="geometry" />
        </mxCell>
        <mxCell id="Kai6SOOak5LAitryeY8G-36" value="False" style="edgeLabel;html=1;align=center;verticalAlign=middle;resizable=0;points=[];" vertex="1" connectable="0" parent="Kai6SOOak5LAitryeY8G-35">
          <mxGeometry x="-0.7067" relative="1" as="geometry">
            <mxPoint as="offset" />
          </mxGeometry>
        </mxCell>
        <mxCell id="Kai6SOOak5LAitryeY8G-37" value="if pilih == 4" style="rhombus;whiteSpace=wrap;html=1;container=0;" vertex="1" parent="1">
          <mxGeometry x="327" y="926.7156338028171" width="98.59154929577463" height="86.64788732394368" as="geometry" />
        </mxCell>
        <mxCell id="Kai6SOOak5LAitryeY8G-38" value="input&amp;nbsp;&lt;span style=&quot;background-color: initial;&quot;&gt;komik webtoon yang&amp;nbsp;&lt;/span&gt;&lt;div&gt;&lt;span style=&quot;background-color: initial;&quot;&gt;ingin dihapus dari favorite&amp;nbsp;&lt;/span&gt;&lt;/div&gt;" style="shape=parallelogram;perimeter=parallelogramPerimeter;whiteSpace=wrap;html=1;fixedSize=1;container=0;" vertex="1" parent="1">
          <mxGeometry x="451.73" y="1101" width="180" height="60" as="geometry" />
        </mxCell>
        <mxCell id="Kai6SOOak5LAitryeY8G-39" style="edgeStyle=orthogonalEdgeStyle;rounded=0;orthogonalLoop=1;jettySize=auto;html=1;" edge="1" parent="1" source="Kai6SOOak5LAitryeY8G-42" target="Kai6SOOak5LAitryeY8G-38">
          <mxGeometry relative="1" as="geometry" />
        </mxCell>
        <mxCell id="Kai6SOOak5LAitryeY8G-40" style="edgeStyle=orthogonalEdgeStyle;rounded=0;orthogonalLoop=1;jettySize=auto;html=1;exitX=1;exitY=1;exitDx=0;exitDy=0;" edge="1" parent="1" source="Kai6SOOak5LAitryeY8G-42">
          <mxGeometry relative="1" as="geometry">
            <mxPoint x="608" y="1048.0111764705885" as="targetPoint" />
          </mxGeometry>
        </mxCell>
        <mxCell id="Kai6SOOak5LAitryeY8G-41" style="edgeStyle=orthogonalEdgeStyle;rounded=0;orthogonalLoop=1;jettySize=auto;html=1;exitX=1;exitY=1;exitDx=0;exitDy=0;" edge="1" parent="1" source="Kai6SOOak5LAitryeY8G-42">
          <mxGeometry relative="1" as="geometry">
            <mxPoint x="638" y="1058.0700000000002" as="targetPoint" />
          </mxGeometry>
        </mxCell>
        <mxCell id="Kai6SOOak5LAitryeY8G-42" value="output&amp;nbsp;&lt;div&gt;data komik webtoon&amp;nbsp;&lt;div&gt;(judul, pembaca,&amp;nbsp;&lt;div&gt;genre, rating, tahun terbit)&lt;/div&gt;&lt;/div&gt;&lt;/div&gt;" style="shape=parallelogram;perimeter=parallelogramPerimeter;whiteSpace=wrap;html=1;fixedSize=1;" vertex="1" parent="1">
          <mxGeometry x="454.26563380281686" y="1000.0749295774654" width="177.46478873239434" height="64.98591549295777" as="geometry" />
        </mxCell>
        <mxCell id="Kai6SOOak5LAitryeY8G-43" style="edgeStyle=orthogonalEdgeStyle;rounded=0;orthogonalLoop=1;jettySize=auto;html=1;exitX=0;exitY=0.5;exitDx=0;exitDy=0;" edge="1" parent="1" source="Kai6SOOak5LAitryeY8G-47">
          <mxGeometry relative="1" as="geometry">
            <mxPoint x="128" y="1140" as="targetPoint" />
          </mxGeometry>
        </mxCell>
        <mxCell id="Kai6SOOak5LAitryeY8G-44" value="False" style="edgeLabel;html=1;align=center;verticalAlign=middle;resizable=0;points=[];" vertex="1" connectable="0" parent="Kai6SOOak5LAitryeY8G-43">
          <mxGeometry x="-0.1796" y="-1" relative="1" as="geometry">
            <mxPoint x="20" y="1" as="offset" />
          </mxGeometry>
        </mxCell>
        <mxCell id="Kai6SOOak5LAitryeY8G-45" style="edgeStyle=orthogonalEdgeStyle;rounded=0;orthogonalLoop=1;jettySize=auto;html=1;" edge="1" parent="1" source="Kai6SOOak5LAitryeY8G-47">
          <mxGeometry relative="1" as="geometry">
            <mxPoint x="357.75" y="1160" as="targetPoint" />
          </mxGeometry>
        </mxCell>
        <mxCell id="Kai6SOOak5LAitryeY8G-46" value="True" style="edgeLabel;html=1;align=center;verticalAlign=middle;resizable=0;points=[];" vertex="1" connectable="0" parent="Kai6SOOak5LAitryeY8G-45">
          <mxGeometry x="-0.6421" y="2" relative="1" as="geometry">
            <mxPoint as="offset" />
          </mxGeometry>
        </mxCell>
        <mxCell id="Kai6SOOak5LAitryeY8G-47" value="if pilih == 5" style="rhombus;whiteSpace=wrap;html=1;container=0;" vertex="1" parent="1">
          <mxGeometry x="198" y="1044.9956338028173" width="98.59154929577463" height="86.64788732394368" as="geometry" />
        </mxCell>
        <mxCell id="Kai6SOOak5LAitryeY8G-48" value="" style="endArrow=classic;html=1;rounded=0;" edge="1" parent="1">
          <mxGeometry width="50" height="50" relative="1" as="geometry">
            <mxPoint x="1088" y="1135" as="sourcePoint" />
            <mxPoint x="1088" y="175" as="targetPoint" />
          </mxGeometry>
        </mxCell>
        <mxCell id="Kai6SOOak5LAitryeY8G-49" style="edgeStyle=orthogonalEdgeStyle;rounded=0;orthogonalLoop=1;jettySize=auto;html=1;" edge="1" parent="1" source="Kai6SOOak5LAitryeY8G-50">
          <mxGeometry relative="1" as="geometry">
            <mxPoint x="1088" y="770.2178873239441" as="targetPoint" />
          </mxGeometry>
        </mxCell>
        <mxCell id="Kai6SOOak5LAitryeY8G-50" value="Input Judul Komik&amp;nbsp;&lt;div&gt;&lt;span style=&quot;background-color: initial;&quot;&gt;Webtoon&amp;nbsp;&lt;/span&gt;&lt;span style=&quot;background-color: initial;&quot;&gt;Yang Akan&lt;/span&gt;&lt;div&gt;&lt;div&gt;&lt;span style=&quot;background-color: initial;&quot;&gt;Ditambahkan&amp;nbsp;&lt;/span&gt;&lt;span style=&quot;background-color: initial;&quot;&gt;Ke Favorite&lt;/span&gt;&lt;/div&gt;&lt;/div&gt;&lt;/div&gt;" style="shape=parallelogram;perimeter=parallelogramPerimeter;whiteSpace=wrap;html=1;fixedSize=1;" vertex="1" parent="1">
          <mxGeometry x="637.9956338028169" y="737.7249295774652" width="177.46478873239434" height="64.98591549295777" as="geometry" />
        </mxCell>
        <mxCell id="Kai6SOOak5LAitryeY8G-51" style="edgeStyle=orthogonalEdgeStyle;rounded=0;orthogonalLoop=1;jettySize=auto;html=1;exitX=1;exitY=1;exitDx=0;exitDy=0;" edge="1" parent="1" source="Kai6SOOak5LAitryeY8G-52">
          <mxGeometry relative="1" as="geometry">
            <mxPoint x="208" y="1198.3333333333335" as="targetPoint" />
          </mxGeometry>
        </mxCell>
        <mxCell id="Kai6SOOak5LAitryeY8G-52" value="Output&lt;div&gt;&quot;Pilihan tidak valid.&amp;nbsp;&lt;/div&gt;&lt;div&gt;pilih angka 1-5&quot;&lt;/div&gt;" style="shape=parallelogram;perimeter=parallelogramPerimeter;whiteSpace=wrap;html=1;fixedSize=1;container=0;" vertex="1" parent="1">
          <mxGeometry x="43" y="1145" width="155" height="60" as="geometry" />
        </mxCell>
        <mxCell id="Kai6SOOak5LAitryeY8G-53" style="edgeStyle=orthogonalEdgeStyle;rounded=0;orthogonalLoop=1;jettySize=auto;html=1;entryX=0.5;entryY=0;entryDx=0;entryDy=0;" edge="1" parent="1" source="Kai6SOOak5LAitryeY8G-54" target="Kai6SOOak5LAitryeY8G-3">
          <mxGeometry relative="1" as="geometry" />
        </mxCell>
        <mxCell id="Kai6SOOak5LAitryeY8G-54" value="B" style="shape=offPageConnector;whiteSpace=wrap;html=1;" vertex="1" parent="1">
          <mxGeometry x="687.29" y="50" width="60" height="60" as="geometry" />
        </mxCell>
        <mxCell id="Kai6SOOak5LAitryeY8G-55" value="FLOWCHART&lt;div&gt;MENU UTAMA&lt;/div&gt;" style="shape=process;whiteSpace=wrap;html=1;backgroundOutline=1;" vertex="1" parent="1">
          <mxGeometry x="296.59000000000003" y="1161" width="120" height="60" as="geometry" />
        </mxCell>
      </root>
    </mxGraphModel>
  </diagram>
</mxfile>
